:SAMPLES-PER-SECOND 30
:FULLY-SPECIFIED
:DEGREES
669
root  5.22544 34.4479 -4.57896 77.577 -72.203 -71.8966
RightUpLeg  -35.1043 -14.0303 2.57893
RightLeg  40.6492 -2.1762 -2.27913
RightFoot  -5.14025 -1.20321 21.3403
RightToes  -2.32832e-010 0 -3.6325e-017
Spine  23.7445 -2.91058 -26.3673
Spine1  -7.62544 -13.2841 47.6466
HEad  -27.1611 27.2521 -0.73232
LeftShoulder1  0.221357 0.451822 1.43508
LeftArm  -23.3077 -15.5301 -49.8192
LeftForeArm  -176.649 -61.0864 -163.312
LeftHand  -0.232086 4.60459 34.6416
RightShoulder  0.316659 -2.04235 15.145
RightArm  -5.84501 -35.7556 55.6935
RightForeArm  6.21625 32.1586 6.73955
RightHand  -0.406512 -1.84977 -13.178
LeftUpLeg  -16.8592 4.77813 52.5318
LeftLeg  15.2817 3.81448 1.76193
LeftFoot  0.887861 4.40055 -39.6008
LeftToes  2.2737e-010 4.38529e-011 2.18788e-011
670
root  5.22828 34.3779 -4.70162 70.7419 -72.0515 -64.8109
RightUpLeg  -35.3764 -15.0316 1.76042
RightLeg  41.8334 -2.61379 -2.79496
RightFoot  -6.04541 -1.07437 22.0746
RightToes  -2.32832e-010 0 -3.6325e-017
Spine  24.6346 -3.6154 -25.3297
Spine1  -8.5479 -13.4804 46.1894
HEad  -26.7965 26.399 0.0332856
LeftShoulder1  0.379551 -0.325321 -1.66444
LeftArm  -20.6262 -8.88335 -45.8415
LeftForeArm  176.324 -67.8026 -156.762
LeftHand  -0.553707 3.03177 27.1071
RightShoulder  0.334694 -1.9434 14.8754
RightArm  -12.8832 -36.8891 55.7027
RightForeArm  2.28995 39.9453 9.25667
RightHand  -0.58526 -1.29866 -16.6101
LeftUpLeg  -18.3837 8.53179 51.2388
LeftLeg  14.5525 -1.01834 0.565272
LeftFoot  0.838605 4.38734 -39.6322
LeftToes  2.2737e-010 4.38529e-011 2.18788e-011
671
root  5.25789 34.3122 -4.59762 64.3706 -70.9138 -58.9338
RightUpLeg  -34.3712 -16.7515 1.33404
RightLeg  42.0983 -2.73003 -2.93486
RightFoot  -6.38222 -1.05545 23.0597
RightToes  -2.32832e-010 0 -3.6325e-017
Spine  25.0849 -3.88881 -22.2942
Spine1  -7.90312 -13.3963 44.1243
HEad  -28.4962 23.9826 -0.308298
LeftShoulder1  0.52957 -0.882798 -4.12941
LeftArm  -16.1592 -3.44642 -44.0841
LeftForeArm  163.288 -76.047 -139.911
LeftHand  -0.750571 1.32775 21.3307
RightShoulder  0.330472 -1.94335 14.5615
RightArm  -17.5124 -38.1198 53.8917
RightForeArm  2.58745 51.1095 13.8659
RightHand  -0.630795 -0.705604 -15.5893
LeftUpLeg  -20.5383 9.54442 51.0374
LeftLeg  16.1273 -3.7898 -0.92892
LeftFoot  0.166816 4.05327 -38.7872
LeftToes  2.2737e-010 4.38529e-011 2.18788e-011
672
root  5.25617 34.2539 -4.27927 61.4661 -69.9054 -56.7712
RightUpLeg  -32.8952 -17.5708 0.837484
RightLeg  41.6984 -2.8157 -2.97835
RightFoot  -6.26052 -1.126 24.0688
RightToes  -2.32832e-010 0 -3.6325e-017
Spine  24.2192 -3.45991 -18.4771
Spine1  -5.71547 -12.6779 41.8503
HEad  -31.3479 20.5055 -1.87857
LeftShoulder1  0.639404 -1.21992 -5.76702
LeftArm  -10.4173 0.733862 -44.7794
LeftForeArm  120.379 -81.2264 -90.5469
LeftHand  -0.869602 0.00632083 18.7589
RightShoulder  0.271962 -2.18871 14.0622
RightArm  -20.6519 -38.6219 50.0504
RightForeArm  9.45 63.5822 22.8141
RightHand  -0.475928 -0.111155 -10.4609
LeftUpLeg  -22.6013 10.5875 50.7082
LeftLeg  19.604 -6.2983 -2.17132
LeftFoot  -1.36786 3.35747 -37.1022
LeftToes  2.2737e-010 4.38529e-011 2.18788e-011
673
root  5.2148 34.2309 -3.72214 60.0902 -70.3262 -56.2716
RightUpLeg  -31.1475 -17.4124 -1.07831
RightLeg  40.8913 -2.70329 -2.79505
RightFoot  -5.83838 -1.26752 25.1487
RightToes  -2.32832e-010 0 -3.6325e-017
Spine  23.0437 -2.80235 -15.0429
Spine1  -3.76951 -11.4654 39.0441
HEad  -33.1495 17.1719 -3.6718
LeftShoulder1  0.775367 -1.57642 -7.68974
LeftArm  -4.18415 5.33031 -45.618
LeftForeArm  77.0435 -77.3058 -41.2777
LeftHand  -1.02812 -1.35846 17.7767
RightShoulder  0.247251 -2.27225 13.4291
RightArm  -22.8279 -38.2243 44.4668
RightForeArm  27.9889 74.3605 43.3005
RightHand  -0.22056 0.433943 -4.46874
LeftUpLeg  -23.8607 11.2421 49.3665
LeftLeg  24.1253 -7.83054 -3.49616
LeftFoot  -3.77404 2.42839 -35.3063
LeftToes  2.2737e-010 4.38529e-011 2.18788e-011
674
root  5.14441 34.2348 -2.90731 58.5765 -72.4516 -55.9718
RightUpLeg  -28.9544 -16.3388 -4.96359
RightLeg  39.7824 -2.47297 -2.48619
RightFoot  -5.15279 -1.47842 26.25
RightToes  -2.32832e-010 0 -3.6325e-017
Spine  22.4002 -2.45444 -11.8415
Spine1  -2.76624 -10.0342 34.6971
HEad  -33.6379 14.531 -5.19968
LeftShoulder1  0.98266 -2.0247 -10.4983
LeftArm  1.80619 10.9551 -44.9333
LeftForeArm  64.1366 -70.8004 -24.696
LeftHand  -1.24794 -2.80068 17.8047
RightShoulder  0.289713 -2.02783 12.8566
RightArm  -24.4007 -36.5639 38.2761
RightForeArm  73.9172 79.0839 91.9049
RightHand  -0.00681023 0.651627 -0.212182
LeftUpLeg  -23.8934 11.7483 46.572
LeftLeg  28.9074 -8.75697 -4.87355
LeftFoot  -6.72858 1.46826 -34.533
LeftToes  2.2737e-010 4.38529e-011 2.18788e-011
675
root  5.04631 34.2388 -1.91173 57.4841 -75.8992 -56.6288
RightUpLeg  -26.3891 -14.2791 -10.1365
RightLeg  38.4279 -2.17233 -2.11913
RightFoot  -4.23066 -1.73958 27.0514
RightToes  -2.32832e-010 0 -3.6325e-017
Spine  22.11 -2.33805 -8.36236
Spine1  -1.72004 -8.41434 28.131
HEad  -34.0159 12.1468 -6.71712
LeftShoulder1  1.19125 -2.32556 -13.4633
LeftArm  6.9743 16.4814 -43.6969
LeftForeArm  57.35 -64.1369 -17.3464
LeftHand  -1.42168 -3.42057 18.8623
RightShoulder  0.296091 -1.94338 12.0807
RightArm  -25.8429 -32.8588 33.5779
RightForeArm  116.331 74.2967 136.294
RightHand  0.123501 0.469567 2.41247
LeftUpLeg  -22.4564 12.3244 42.8628
LeftLeg  33.439 -9.15302 -6.10835
LeftFoot  -9.66517 0.576335 -34.4523
LeftToes  2.2737e-010 4.38529e-011 2.18788e-011
676
root  4.94508 34.2787 -0.906622 52.7942 -80.8783 -53.8785
RightUpLeg  -24.2153 -12.041 -16.4814
RightLeg  36.9441 -1.22214 -1.25059
RightFoot  -3.13845 -2.01827 27.3522
RightToes  -2.32832e-010 0 -3.6325e-017
Spine  21.914 -1.97149 -5.88394
Spine1  -0.250592 -6.50296 19.8733
HEad  -34.4907 9.6659 -8.13424
LeftShoulder1  1.30074 -2.33514 -15.4741
LeftArm  10.9038 21.134 -43.5067
LeftForeArm  50.7069 -56.9309 -12.8216
LeftHand  -1.4897 -3.13367 20.3734
RightShoulder  0.186911 -2.44003 10.4756
RightArm  -26.4869 -26.8314 32.2164
RightForeArm  133.916 65.873 154.211
RightHand  0.176286 -0.24885 4.03084
LeftUpLeg  -19.6956 13.2151 37.742
LeftLeg  36.865 -8.78557 -6.64546
LeftFoot  -11.8782 -0.0901423 -33.5733
LeftToes  2.2737e-010 4.38529e-011 2.18788e-011
677
root  4.88337 34.4198 -0.0272583 50.2079 -88.4207 -52.6626
RightUpLeg  -23.4703 -10.8403 -24.9737
RightLeg  35.2411 0.982708 0.49051
RightFoot  -1.74506 -2.35257 27.3846
RightToes  -2.32832e-010 0 -3.6325e-017
Spine  21.8056 -1.05659 -6.29679
Spine1  0.580043 -4.25746 10.8144
HEad  -34.2183 7.22842 -8.68067
LeftShoulder1  1.34353 -2.32284 -16.3202
LeftArm  13.6995 25.3725 -43.7599
LeftForeArm  44.5476 -49.9397 -9.92677
LeftHand  -1.52381 -2.91065 21.3563
RightShoulder  0.0426332 -3.21485 8.06083
RightArm  -24.4673 -19.2419 34.6745
RightForeArm  143.136 57.8442 161.968
RightHand  0.149592 -1.27977 4.45208
LeftUpLeg  -16.057 14.6094 29.6612
LeftLeg  37.8581 -7.54672 -5.88496
LeftFoot  -12.9362 -0.378993 -31.8605
LeftToes  2.2737e-010 4.38529e-011 2.18788e-011
678
root  4.8427 34.59 0.689507 -100.457 -81.6969 97.4623
RightUpLeg  -24.5709 -10.7204 -34.8272
RightLeg  33.236 4.04108 2.60577
RightFoot  0.0536489 -2.78152 27.3894
RightToes  -2.32832e-010 0 -3.6325e-017
Spine  21.566 0.196167 -8.46443
Spine1  0.355525 -1.6432 1.07703
HEad  -33.3475 4.81853 -7.96234
LeftShoulder1  1.40783 -2.54611 -16.5541
LeftArm  16.0941 29.2457 -42.7084
LeftForeArm  39.4468 -44.3339 -8.22128
LeftHand  -1.55829 -3.23325 21.0452
RightShoulder  -0.0234238 -3.65363 5.94811
RightArm  -19.3545 -11.4213 39.8198
RightForeArm  150.573 52.2588 165.604
RightHand  0.110269 -1.76794 3.91419
LeftUpLeg  -12.1724 16.4864 19.4374
LeftLeg  36.2164 -5.78588 -4.16875
LeftFoot  -13.1605 -0.426465 -31.032
LeftToes  2.2737e-010 4.38529e-011 2.18788e-011
679
root  4.76724 34.7075 1.16249 -113.674 -73.8855 110.557
RightUpLeg  -26.5896 -10.4506 -42.0591
RightLeg  31.1866 6.52054 4.02813
RightFoot  1.83302 -3.17742 27.1488
RightToes  -2.32832e-010 0 -3.6325e-017
Spine  21.1369 1.39848 -8.90373
Spine1  0.279047 1.32346 -8.60069
HEad  -33.1774 2.10899 -6.69234
LeftShoulder1  1.45698 -2.76036 -16.5432
LeftArm  18.5912 31.5769 -40.7133
LeftForeArm  34.8219 -39.8626 -7.13417
LeftHand  -1.53205 -3.5627 19.9617
RightShoulder  -0.0141555 -3.59724 5.41878
RightArm  -13.7892 -4.54091 44.9112
RightForeArm  157.612 49.3387 167.366
RightHand  0.0868215 -1.82835 3.20265
LeftUpLeg  -8.74485 18.3489 11.4801
LeftLeg  33.3927 -4.08712 -2.51575
LeftFoot  -13.0541 -0.410136 -31.8258
LeftToes  2.2737e-010 4.38529e-011 2.18788e-011
680
root  4.67725 34.7454 1.29629 -118.342 -71.2991 115.655
RightUpLeg  -28.2844 -9.70156 -43.3887
RightLeg  30.2987 7.23235 4.32925
RightFoot  2.56016 -3.30236 26.7675
RightToes  -2.32832e-010 0 -3.6325e-017
Spine  20.5316 2.27452 -6.15094
Spine1  0.941257 4.01389 -14.741
HEad  -33.8635 -0.79877 -5.92649
LeftShoulder1  1.41875 -2.65596 -16.2938
LeftArm  20.6281 32.0787 -40.1458
LeftForeArm  30.0546 -35.3549 -6.18038
LeftHand  -1.46041 -3.40068 19.4005
RightShoulder  0.0297084 -3.28442 6.62262
RightArm  -10.9101 0.192901 47.3856
RightForeArm  162.688 47.7507 168.335
RightHand  0.045964 -2.37108 2.27565
LeftUpLeg  -7.57671 19.201 9.52437
LeftLeg  32.2716 -3.04072 -1.68612
LeftFoot  -13.2251 -0.474909 -32.7783
LeftToes  2.2737e-010 4.38529e-011 2.18788e-011
681
root  4.62328 34.6518 1.09344 -119.563 -74.6414 118.299
RightUpLeg  -29.0061 -10.5734 -39.6538
RightLeg  31.4802 6.7116 4.18974
RightFoot  1.6404 -3.12128 27.0688
RightToes  -2.32832e-010 0 -3.6325e-017
Spine  19.8581 2.80217 -2.8515
Spine1  0.769112 5.02317 -13.662
HEad  -33.7527 -3.07864 -6.01017
LeftShoulder1  1.33633 -2.39973 -15.8621
LeftArm  21.1706 32.8585 -41.8841
LeftForeArm  24.696 -30.8813 -5.36664
LeftHand  -1.38306 -3.08029 19.0676
RightShoulder  0.111702 -2.79271 8.54844
RightArm  -11.1589 1.5362 47.1148
RightForeArm  164.922 46.7219 168.868
RightHand  -0.00915662 -3.01776 0.411981
LeftUpLeg  -10.2454 17.9197 12.8567
LeftLeg  34.2016 -2.88934 -1.73735
LeftFoot  -13.9787 -0.690545 -32.7584
LeftToes  2.2737e-010 4.38529e-011 2.18788e-011
682
root  4.62 34.4089 0.678627 -110.125 -81.3634 110.489
RightUpLeg  -28.7367 -14.1206 -33.6599
RightLeg  33.999 6.34185 4.35158
RightFoot  -0.405883 -2.77801 28.4562
RightToes  -2.32832e-010 0 -3.6325e-017
Spine  19.9653 3.13397 -1.50896
Spine1  -1.95144 4.06932 -5.85513
HEad  -32.0499 -4.04077 -6.71353
LeftShoulder1  1.29792 -2.34309 -15.3861
LeftArm  19.5271 35.9256 -44.6612
LeftForeArm  17.6121 -27.8147 -5.04473
LeftHand  -1.24736 -3.15906 17.0878
RightShoulder  0.21038 -2.28161 10.1865
RightArm  -12.6721 0.212128 45.9776
RightForeArm  165.604 46.2924 169.068
RightHand  -0.068118 -2.93965 -2.45435
LeftUpLeg  -15.2427 14.9138 18.8331
LeftLeg  37.4708 -3.41717 -2.43027
LeftFoot  -14.9437 -0.958753 -32.4585
LeftToes  2.2737e-010 4.38529e-011 2.18788e-011
